<mxfile host="app.diagrams.net" agent="Mozilla/5.0 (Windows NT 10.0; Win64; x64) AppleWebKit/537.36 (KHTML, like Gecko) Chrome/131.0.0.0 Safari/537.36" version="24.9.1">
  <diagram id="C5RBs43oDa-KdzZeNtuy" name="Page-1">
    <mxGraphModel dx="769" dy="494" grid="1" gridSize="10" guides="1" tooltips="1" connect="1" arrows="1" fold="1" page="1" pageScale="1" pageWidth="827" pageHeight="1169" math="0" shadow="0">
      <root>
        <mxCell id="WIyWlLk6GJQsqaUBKTNV-0" />
        <mxCell id="WIyWlLk6GJQsqaUBKTNV-1" parent="WIyWlLk6GJQsqaUBKTNV-0" />
        <mxCell id="UL2ySo4lfTqVvcoUNIC0-8" value="" style="edgeStyle=none;curved=1;rounded=0;orthogonalLoop=1;jettySize=auto;html=1;fontSize=12;startSize=8;endSize=8;entryX=0.5;entryY=0;entryDx=0;entryDy=0;" edge="1" parent="WIyWlLk6GJQsqaUBKTNV-1" source="UL2ySo4lfTqVvcoUNIC0-0" target="UL2ySo4lfTqVvcoUNIC0-1">
          <mxGeometry relative="1" as="geometry" />
        </mxCell>
        <mxCell id="UL2ySo4lfTqVvcoUNIC0-0" value="&lt;font style=&quot;font-size: 14px;&quot;&gt;Start&lt;/font&gt;" style="ellipse;whiteSpace=wrap;html=1;" vertex="1" parent="WIyWlLk6GJQsqaUBKTNV-1">
          <mxGeometry x="320" y="90" width="120" height="80" as="geometry" />
        </mxCell>
        <mxCell id="UL2ySo4lfTqVvcoUNIC0-11" value="" style="edgeStyle=none;curved=1;rounded=0;orthogonalLoop=1;jettySize=auto;html=1;fontSize=12;startSize=8;endSize=8;" edge="1" parent="WIyWlLk6GJQsqaUBKTNV-1" source="UL2ySo4lfTqVvcoUNIC0-1" target="UL2ySo4lfTqVvcoUNIC0-2">
          <mxGeometry relative="1" as="geometry" />
        </mxCell>
        <mxCell id="UL2ySo4lfTqVvcoUNIC0-1" value="&lt;div&gt;double a = 3.2;&lt;/div&gt;&lt;div&gt;double b = 17.5;&lt;/div&gt;&lt;div&gt;double x = -4.8;&lt;/div&gt;" style="rounded=0;whiteSpace=wrap;html=1;" vertex="1" parent="WIyWlLk6GJQsqaUBKTNV-1">
          <mxGeometry x="320" y="220" width="120" height="60" as="geometry" />
        </mxCell>
        <mxCell id="UL2ySo4lfTqVvcoUNIC0-12" value="" style="edgeStyle=none;curved=1;rounded=0;orthogonalLoop=1;jettySize=auto;html=1;fontSize=12;startSize=8;endSize=8;" edge="1" parent="WIyWlLk6GJQsqaUBKTNV-1" source="UL2ySo4lfTqVvcoUNIC0-2" target="UL2ySo4lfTqVvcoUNIC0-5">
          <mxGeometry relative="1" as="geometry" />
        </mxCell>
        <mxCell id="UL2ySo4lfTqVvcoUNIC0-2" value="double Y = pow(b, 3) * pow(tan(x), 2) - a / pow(sin(x / a), 2);" style="rounded=0;whiteSpace=wrap;html=1;" vertex="1" parent="WIyWlLk6GJQsqaUBKTNV-1">
          <mxGeometry x="195" y="330" width="370" height="60" as="geometry" />
        </mxCell>
        <mxCell id="UL2ySo4lfTqVvcoUNIC0-13" value="" style="edgeStyle=none;curved=1;rounded=0;orthogonalLoop=1;jettySize=auto;html=1;fontSize=12;startSize=8;endSize=8;" edge="1" parent="WIyWlLk6GJQsqaUBKTNV-1" source="UL2ySo4lfTqVvcoUNIC0-5" target="UL2ySo4lfTqVvcoUNIC0-6">
          <mxGeometry relative="1" as="geometry" />
        </mxCell>
        <mxCell id="UL2ySo4lfTqVvcoUNIC0-5" value="double Z = a * exp(-sqrt(3)) * cos((b * x) / a);" style="rounded=0;whiteSpace=wrap;html=1;" vertex="1" parent="WIyWlLk6GJQsqaUBKTNV-1">
          <mxGeometry x="195" y="440" width="370" height="60" as="geometry" />
        </mxCell>
        <mxCell id="UL2ySo4lfTqVvcoUNIC0-14" value="" style="edgeStyle=none;curved=1;rounded=0;orthogonalLoop=1;jettySize=auto;html=1;fontSize=12;startSize=8;endSize=8;" edge="1" parent="WIyWlLk6GJQsqaUBKTNV-1" source="UL2ySo4lfTqVvcoUNIC0-6" target="UL2ySo4lfTqVvcoUNIC0-7">
          <mxGeometry relative="1" as="geometry" />
        </mxCell>
        <mxCell id="UL2ySo4lfTqVvcoUNIC0-6" value="output&lt;br&gt;Y and Z" style="shape=parallelogram;perimeter=parallelogramPerimeter;whiteSpace=wrap;html=1;fixedSize=1;" vertex="1" parent="WIyWlLk6GJQsqaUBKTNV-1">
          <mxGeometry x="320" y="550" width="120" height="60" as="geometry" />
        </mxCell>
        <mxCell id="UL2ySo4lfTqVvcoUNIC0-7" value="&lt;font style=&quot;font-size: 14px;&quot;&gt;End&lt;/font&gt;" style="ellipse;whiteSpace=wrap;html=1;" vertex="1" parent="WIyWlLk6GJQsqaUBKTNV-1">
          <mxGeometry x="320" y="670" width="120" height="80" as="geometry" />
        </mxCell>
      </root>
    </mxGraphModel>
  </diagram>
</mxfile>
